<svg width="24" height="25" viewBox="0 0 24 25" fill="none" xmlns="http://www.w3.org/2000/svg">
<path d="M2 12.4369V15.8869C2 18.7359 2.698 19.8919 3.606 20.8309C4.546 21.7399 5.704 22.4389 8.552 22.4389H15.448C18.296 22.4389 19.454 21.7389 20.394 20.8309C21.302 19.8919 22 18.7369 22 15.8869V8.98889C22 6.13989 21.302 4.98289 20.394 4.04389C19.454 3.13689 18.296 2.43689 15.448 2.43689H8.552C5.704 2.43689 4.546 3.13589 3.606 4.04389C2.698 4.98389 2 6.13989 2 8.98889V12.4369Z" stroke="black" stroke-width="2" stroke-linecap="round" stroke-linejoin="round"/>
<path d="M6.545 12.4379H17.455" stroke="black" stroke-width="2" stroke-linecap="round" stroke-linejoin="round"/>
<path d="M12.003 6.9819V17.8919" stroke="black" stroke-width="2" stroke-linecap="round" stroke-linejoin="round"/>
</svg>
