<svg width="24" height="25" viewBox="0 0 24 25" fill="none" xmlns="http://www.w3.org/2000/svg">
<path d="M16.792 4.34089C18.1064 4.41356 19.3389 5.00279 20.2207 5.9802C21.1026 6.9576 21.5624 8.24394 21.5 9.55889C21.5 12.6309 18.848 14.5179 16.303 16.7809C13.791 19.0239 12.438 20.2499 12 20.5329C11.523 20.2239 9.857 18.7099 7.697 16.7809C5.141 14.5089 2.5 12.6039 2.5 9.55889C2.43756 8.24394 2.89739 6.9576 3.77926 5.9802C4.66113 5.00279 5.89357 4.41356 7.208 4.34089C7.93614 4.31882 8.65756 4.48607 9.30171 4.82629C9.94586 5.16651 10.4907 5.66805 10.883 6.28189C11.723 7.45689 11.863 8.04489 12.003 8.04489C12.143 8.04489 12.281 7.45689 13.113 6.27889C13.5031 5.66221 14.0481 5.15868 14.6937 4.81861C15.3393 4.47853 16.0628 4.3138 16.792 4.34089ZM16.792 2.34089C15.8839 2.31182 14.981 2.48798 14.1504 2.85624C13.3199 3.22451 12.5831 3.7754 11.995 4.46789C11.4074 3.77742 10.6721 3.2278 9.84354 2.85964C9.01498 2.49149 8.11428 2.31421 7.208 2.34089C5.36287 2.41304 3.62138 3.21288 2.36434 4.56549C1.1073 5.9181 0.436992 7.71343 0.499998 9.55889C0.499998 13.1689 3.05 15.3859 5.515 17.5289C5.798 17.7749 6.084 18.0229 6.368 18.2759L7.395 19.1939C8.51504 20.2597 9.68926 21.267 10.913 22.2119C11.2368 22.4215 11.6143 22.5331 12 22.5331C12.3857 22.5331 12.7632 22.4215 13.087 22.2119C14.3497 21.2382 15.56 20.1984 16.713 19.0969L17.635 18.2729C17.928 18.0129 18.225 17.7539 18.52 17.4989C20.854 15.4739 23.5 13.1789 23.5 9.55889C23.563 7.71343 22.8927 5.9181 21.6357 4.56549C20.3786 3.21288 18.6371 2.41304 16.792 2.34089Z" fill="black"/>
</svg>
