<svg width="15" height="15" viewBox="0 0 15 15" fill="none" xmlns="http://www.w3.org/2000/svg">
<g clip-path="url(#clip0_102_232)">
<path d="M13.9167 7.93689L12.4933 6.30939L12.6917 4.15689L10.5858 3.67856L9.48334 1.81189L7.5 2.66356L5.51667 1.81189L4.41417 3.67272L2.30834 4.14522L2.50667 6.30356L1.08334 7.93689L2.50667 9.56439L2.30834 11.7227L4.41417 12.2011L5.51667 14.0619L7.5 13.2044L9.48334 14.0561L10.5858 12.1952L12.6917 11.7169L12.4933 9.56439L13.9167 7.93689ZM5.97167 10.2761L4.58334 8.87606C4.52926 8.82209 4.48636 8.75799 4.45708 8.68742C4.42781 8.61685 4.41274 8.5412 4.41274 8.46481C4.41274 8.38841 4.42781 8.31276 4.45708 8.24219C4.48636 8.17162 4.52926 8.10752 4.58334 8.05356L4.62417 8.01272C4.85167 7.78522 5.225 7.78522 5.4525 8.01272L6.39167 8.95772L9.39584 5.94772C9.62334 5.72022 9.99667 5.72022 10.2242 5.94772L10.265 5.98856C10.4925 6.21606 10.4925 6.58356 10.265 6.81106L6.81167 10.2761C6.5725 10.5036 6.205 10.5036 5.97167 10.2761Z" fill="#5792E7"/>
</g>
<defs>
<clipPath id="clip0_102_232">
<rect width="14" height="14" fill="white" transform="translate(0.5 0.93689)"/>
</clipPath>
</defs>
</svg>
